HIERARCHY
ROOT Hips
{
	OFFSET 0.000000 0.000000 0.000000 
	CHANNELS 6 Xposition Yposition Zposition Yrotation Zrotation Xrotation 
	JOINT Lumbar
	{
		OFFSET 0.000000 0.000000 0.000000 
		CHANNELS 3 Zrotation Xrotation Yrotation
		JOINT Neck
		{
			OFFSET 0.000000 0.445665 0.000000 
			CHANNELS 3 Zrotation Xrotation Yrotation
			End Site
			{
				OFFSET 0.000000 0.227535 0.000000 
			}
		}
		JOINT RightShoulder
		{
			OFFSET 0.019635 0.377685 0.194865 
			CHANNELS 3 Zrotation Xrotation Yrotation
			JOINT RightElbow
			{
				OFFSET 0.000000 -0.243375 0.000000 
				CHANNELS 2 Zrotation Yrotation
				JOINT RightWrist
				{
					OFFSET 0.000000 -0.264825 0.000000 
					CHANNELS 2 Zrotation Xrotation
					End Site
					{
						OFFSET 0.006600 -0.176220 0.000990 
					}
				}
			}
		}
		JOINT LeftShoulder
		{
			OFFSET 0.019635 0.377685 -0.194865 
			CHANNELS 3 Zrotation Xrotation Yrotation
			JOINT LeftElbow
			{
				OFFSET 0.000000 -0.243375 0.000000 
				CHANNELS 2 Zrotation Yrotation
				JOINT LeftWrist
				{
					OFFSET 0.000000 -0.264825 0.000000 
					CHANNELS 2 Zrotation Xrotation
					End Site
					{
						OFFSET 0.006600 -0.176220 -0.000990 
					}
				}
			}
		}
	}
	JOINT RightHip
	{
		OFFSET 0.052140 -0.069960 0.075570 
		CHANNELS 3 Zrotation Xrotation Yrotation
		JOINT RightKnee
		{
			OFFSET 0.000000 -0.402270 0.000000 
			CHANNELS 1 Zrotation
			JOINT RightAnkle
			{
				OFFSET 0.000000 -0.404085 0.000000 
				CHANNELS 3 Zrotation Xrotation Yrotation
				End Site
				{
					OFFSET 0.204105 -0.089430 0.008415 
				}
			}
		}
	}
	JOINT LeftHip
	{
		OFFSET 0.052140 -0.069960 -0.075570 
		CHANNELS 3 Zrotation Xrotation Yrotation
		JOINT LeftKnee
		{
			OFFSET 0.000000 -0.402270 0.000000 
			CHANNELS 1 Zrotation
			JOINT LeftAnkle
			{
				OFFSET 0.000000 -0.404085 0.000000 
				CHANNELS 3 Zrotation Xrotation Yrotation
				End Site
				{
					OFFSET 0.204105 -0.089430 -0.008415 
				}
			}
		}
	}
}
MOTION
Frames: 25
Frame Time: 0.02
0.91252 -0.02539 0.05028 174.7789 -40.09703 -0.88223 43.00261 -0.40564 9.81453 -5.6979 9.05879 -2.11994 75.9421 -20.03932 41.42174 50.70977 71.52422 21.80365 -4.69355 7.56453 26.30567 -21.19957 115.3854 -76.82526 -12.22528 1.15301 63.70412 -17.89493 4.30213 -24.66904 -10.08042 -1.89549 -3.31331 55.16424 14.29662 1.51682 -35.17599 -8.00809 2.87387 3.69876
0.90478 -0.02761 0.0359 175.16761 -40.11365 -0.81304 43.2143 -0.35354 9.65139 -5.99365 9.13983 -2.11994 81.33855 -20.32282 43.61685 44.43767 67.73081 23.65454 -5.11339 6.50506 25.44657 -21.14888 115.4799 -74.17935 -12.82985 0.62158 63.96014 -17.9831 4.69717 -25.8207 -9.9715 -1.80877 -3.26575 54.85251 15.07182 1.06628 -35.24247 -8.04769 2.886 3.70684
0.89627 -0.02993 0.01981 175.6853 -40.15963 -0.7504 43.48962 -0.24801 9.32797 -6.38125 9.10529 -2.11994 87.49309 -21.39129 46.99083 38.13797 64.46571 23.85407 -5.83842 5.21938 24.60671 -20.89656 115.62979 -70.89187 -13.70937 -0.2509 64.22784 -17.90274 4.86774 -27.41143 -9.77303 -1.7045 -3.20556 54.54867 15.96292 0.62935 -35.2608 -8.10293 2.87854 3.70595
0.88816 -0.03212 0.00447 176.14901 -40.2035 -0.67753 43.73725 -0.16141 9.06659 -6.72343 9.10694 -2.11994 93.23527 -22.10234 49.7012 31.9897 61.05307 24.75071 -6.40449 4.04185 23.7662 -20.73268 115.74229 -68.07453 -14.411 -0.91882 64.48458 -17.89085 5.1056 -28.77854 -9.61297 -1.61333 -3.15359 54.25672 16.79073 0.16477 -35.29116 -8.1584 2.87958 3.70931
0.87982 -0.03467 -0.01081 176.59676 -40.19946 -0.6344 43.98253 -0.09745 8.84925 -7.08733 9.17895 -2.11994 99.23041 -22.78079 52.87291 25.23891 57.15718 25.94079 -7.04511 2.81226 22.8772 -20.56545 115.91219 -64.51475 -15.32646 -1.78073 64.76704 -17.9127 5.49115 -30.26714 -9.46101 -1.50041 -3.09104 53.89748 17.66487 -0.22316 -35.36474 -8.18312 2.8827 3.71215
0.87178 -0.03649 -0.02658 177.10802 -40.30237 -0.5304 44.24618 0.02594 8.50109 -7.42395 9.07472 -2.11994 104.88311 -23.72789 55.39513 19.74585 54.44977 26.09469 -7.60678 1.66173 22.10507 -20.37213 115.97016 -62.33424 -15.8676 -2.3276 64.99791 -17.82469 5.51891 -31.59688 -9.27238 -1.42858 -3.04756 53.68166 18.46792 -0.75586 -35.33563 -8.27554 2.87679 3.71391
0.86466 -0.03638 -0.04343 177.75018 -40.69322 -0.26747 44.55146 0.30593 7.85126 -7.68111 8.5333 -2.11994 109.50373 -25.21991 55.81821 17.69721 54.62387 23.87814 -7.88019 0.63107 21.58098 -20.05385 115.7437 -64.25068 -15.28343 -1.89332 65.0841 -17.47124 4.56867 -32.41026 -8.99354 -1.47555 -3.06007 53.8522 19.06491 -1.76906 -35.04235 -8.55049 2.84966 3.71424
0.8579 -0.03552 -0.06067 178.45327 -41.19057 0.05821 44.87136 0.64298 7.07237 -7.90373 7.81489 -2.11994 113.73769 -26.96314 55.56048 16.92476 56.0261 20.65578 -8.06433 -0.27685 21.18908 -19.73697 115.39374 -67.55435 -14.31951 -1.13668 65.11728 -17.01352 3.27342 -33.04034 -8.68302 -1.56432 -3.09219 54.16832 19.58268 -2.91274 -34.646 -8.89293 2.81434 3.71389
0.85106 -0.03494 -0.07761 179.13659 -41.63969 0.36259 45.18018 0.95024 6.33922 -8.12936 7.16332 -2.11994 118.09438 -28.59691 55.63763 15.59162 57.06641 17.82218 -8.28816 -1.14384 20.78224 -19.48681 115.07693 -70.135 -13.54542 -0.54832 65.17447 -16.60598 2.16531 -33.73274 -8.39418 -1.6333 -3.11519 54.42316 20.12482 -3.9453 -34.29149 -9.20503 2.78335 3.7142
0.84384 -0.03461 -0.09514 179.79216 -42.0901 0.63831 45.51057 1.27536 5.65335 -8.41131 6.56396 -2.11994 122.71489 -30.22908 55.64975 14.1714 57.33695 15.20072 -8.52645 -2.44607 20.1809 -18.94278 114.86534 -73.07814 -12.70449 0.11816 65.23374 -16.18149 0.92273 -34.53046 -8.07136 -1.70502 -3.13862 54.65804 20.72104 -5.19744 -33.95572 -9.51696 2.74882 3.71261
0.8375 -0.0336 -0.1115 180.51694 -42.56149 0.98616 45.79795 1.57649 4.84245 -8.56717 5.81675 -2.11994 126.66623 -31.92479 55.61701 13.24166 59.44386 11.94476 -8.70908 -2.78605 20.02144 -19.01677 114.39669 -75.61155 -11.91342 0.70562 65.27429 -15.76882 -0.12056 -35.05809 -7.81308 -1.78117 -3.166 54.96848 21.18312 -6.02195 -33.55798 -9.84423 2.72032 3.71506
0.83342 -0.03087 -0.12469 181.42771 -43.07519 1.53955 45.96898 1.79368 3.70227 -8.37768 4.69339 -2.11994 128.99 -33.64149 55.63951 13.31171 66.77046 6.97335 -8.75971 -0.6984 20.99978 -20.77155 113.30639 -76.61717 -11.31631 0.97378 65.28998 -15.4227 -0.51226 -34.89383 -7.74027 -1.85964 -3.19947 55.45557 21.30323 -5.64689 -33.00745 -10.20377 2.70749 3.72767
0.83023 -0.02751 -0.13665 182.40278 -43.60405 2.15915 46.09499 1.98488 2.44508 -8.06341 3.43033 -2.11994 130.60803 -35.42717 55.62182 13.84218 75.81771 1.44493 -8.75416 2.39127 22.42542 -23.15258 111.9447 -77.1792 -10.78924 1.15718 65.28595 -15.09124 -0.69308 -34.46032 -7.73402 -1.94116 -3.2363 56.0124 21.2886 -4.83585 -32.40032 -10.5747 2.70148 3.74451
0.82668 -0.02446 -0.14908 183.34229 -44.11924 2.73446 46.23706 2.19056 1.25172 -7.80906 2.23873 -2.11994 132.48657 -37.23818 55.62188 14.18635 83.77846 -3.68244 -8.77515 5.1549 23.68168 -25.26649 110.67635 -77.98136 -10.2512 1.39558 65.28186 -14.74852 -0.98094 -34.14155 -7.69812 -2.02118 -3.27168 56.5356 21.3294 -4.21415 -31.82297 -10.93667 2.69467 3.76036
0.82294 -0.02126 -0.16191 184.31389 -44.66762 3.37266 46.39736 2.38827 0.00615 -7.5386 1.0059 -2.11994 134.68226 -38.81844 55.64414 14.46695 93.06282 -9.46873 -8.79619 7.37899 24.80811 -27.31248 109.55433 -78.65739 -9.60689 1.57521 65.31428 -14.42189 -1.23545 -33.84797 -7.65865 -2.10317 -3.30745 57.07438 21.39282 -3.62876 -31.22204 -11.31876 2.67867 3.77275
0.8198 -0.01824 -0.17359 185.22921 -45.14805 3.89384 46.50991 2.59405 -1.15347 -7.27427 -0.17024 -2.11994 135.95949 -40.89323 55.56534 14.98675 99.98949 -14.00366 -8.79584 10.96029 26.29861 -29.64117 108.03464 -79.48713 -9.21187 1.85327 65.26635 -14.06606 -1.5026 -33.44143 -7.64269 -2.18117 -3.34292 57.59249 21.37712 -2.86922 -30.66169 -11.65853 2.68253 3.79274
0.81816 -0.01578 -0.1825 186.00543 -45.44507 4.08334 46.49175 2.84162 -2.07337 -7.04157 -1.16811 -2.11994 135.70294 -44.28998 55.68898 15.92926 99.92032 -14.91905 -8.83075 18.06146 28.78011 -32.65791 105.75071 -80.70834 -9.43225 2.41766 65.00401 -13.63186 -1.87342 -32.77942 -7.67712 -2.24768 -3.37697 58.05989 21.18486 -1.67584 -30.19801 -11.89749 2.74816 3.83802
0.81708 -0.01352 -0.19027 186.71606 -45.671 4.1511 46.42883 3.0953 -2.89643 -6.82207 -2.10031 -2.11994 134.40441 -48.17375 55.63328 17.11414 97.42564 -14.55495 -8.83362 26.48344 31.59581 -35.92334 103.0341 -82.10979 -9.91146 3.0819 64.66121 -13.16751 -2.25937 -32.01575 -7.73276 -2.30974 -3.41044 58.49865 20.91635 -0.33193 -29.78362 -12.08959 2.83188 3.88977
0.8157 -0.0112 -0.1985 187.43589 -45.92393 4.26918 46.39277 3.33747 -3.74692 -6.60757 -3.05424 -2.11994 133.02656 -51.86587 55.34637 18.26293 96.07634 -14.79067 -8.79592 34.29722 34.19335 -39.0388 100.33127 -83.52636 -10.31318 3.70507 64.35388 -12.71327 -2.62525 -31.3056 -7.7777 -2.37352 -3.44394 58.93479 20.67725 0.90362 -29.36575 -12.29046 2.90188 3.93514
0.81452 -0.00872 -0.20697 188.2467 -46.20053 4.41049 46.32762 3.61631 -4.67464 -6.34389 -4.04977 -2.11994 133.91238 -55.48422 56.35424 19.11353 94.60253 -14.97252 -8.97996 42.20691 37.07955 -42.3439 98.36006 -84.55677 -10.55567 4.31427 64.0507 -12.27342 -3.03931 -30.55469 -7.82937 -2.43896 -3.47865 59.44069 20.45552 2.31976 -28.8639 -12.54471 2.99578 3.99537
0.81306 -0.00663 -0.21466 188.84944 -46.40991 4.47395 46.31305 3.81972 -5.4131 -6.18534 -4.93827 -2.11994 129.90222 -59.30956 54.65291 20.63966 92.79376 -14.95095 -8.70657 50.18316 39.44665 -45.29011 94.80443 -86.39215 -11.18035 4.96861 63.71973 -11.79778 -3.35982 -29.8685 -7.87124 -2.49955 -3.51052 59.79201 20.18131 3.39389 -28.55203 -12.67643 3.04352 4.02588
0.81068 -0.00558 -0.22065 188.91135 -46.45808 4.3487 46.44979 3.82082 -5.68446 -6.33345 -5.57037 -2.11994 112.148 -64.11683 45.26929 23.93639 90.60585 -14.71553 -7.08062 58.29096 40.22023 -47.29555 86.66053 -90.82102 -12.887 5.79908 63.33463 -11.21812 -3.41549 -29.38392 -7.88031 -2.55006 -3.53573 59.7365 19.78124 3.44913 -28.72962 -12.48206 2.96511 3.97543
0.808 -0.00493 -0.22586 188.76251 -46.43983 4.14938 46.63955 3.74479 -5.76195 -6.58453 -6.09136 -2.11994 89.60348 -69.01971 33.21853 27.90439 88.16483 -14.31172 -5.01352 66.3522 40.47088 -48.89885 77.00622 -95.98213 -14.95427 6.6585 62.92417 -10.60612 -3.37879 -28.96986 -7.87857 -2.59533 -3.55784 59.52385 19.33171 3.15936 -29.10035 -12.16609 2.839 3.8946
0.80547 -0.00411 -0.23132 188.69819 -46.44712 3.98625 46.80425 3.69899 -5.90702 -6.7754 -6.64815 -2.11994 69.56016 -73.5269 22.54085 31.5914 85.8619 -13.95723 -3.21297 74.26765 41.01172 -50.621 68.24358 -100.53332 -16.79456 7.45429 62.52316 -10.01666 -3.38628 -28.52597 -7.88182 -2.64163 -3.5807 59.37392 18.90515 3.05065 -29.39932 -11.90485 2.73032 3.82559
0.80293 -0.00325 -0.23718 188.67903 -46.47094 3.80923 46.96955 3.67267 -6.13633 -7.02057 -7.26733 -2.11994 48.07897 -79.52443 11.14802 35.20348 83.37739 -13.66682 -1.13389 82.9852 41.34819 -52.65682 58.56534 -106.24528 -18.90195 8.46345 62.12695 -9.39155 -3.38173 -28.06835 -7.88553 -2.69385 -3.6065 59.25872 18.47339 2.84697 -29.63636 -11.64301 2.63822 3.76415
